<?xml version="1.0" encoding="UTF-8"?>
<svg xmlns="http://www.w3.org/2000/svg" xmlns:xlink="http://www.w3.org/1999/xlink" width="120px" height="60px" viewBox="0 0 120 60" version="1.1">
<g id="surface1">
<path style=" stroke:none;fill-rule:nonzero;fill:rgb(0%,0%,0%);fill-opacity:1;" d="M 0 30 L 0 60 L 120 60 L 120 0 L 0 0 Z M 71.398438 19.898438 L 71.398438 20.300781 L 48.398438 20.300781 L 48.398438 19.496094 L 71.398438 19.496094 Z M 49.398438 24.324219 L 49.398438 24.652344 L 46.25 26.84375 L 43.097656 29.027344 L 46.25 29.039062 L 49.398438 29.046875 L 49.398438 29.648438 L 41.5 29.648438 L 41.5 29.039062 L 44.648438 26.84375 L 47.789062 24.652344 L 41.5 24.652344 L 41.5 24 L 49.398438 24 Z M 52.882812 25.0625 L 52.898438 26.109375 L 53.269531 25.941406 C 53.96875 25.640625 54.410156 25.574219 55.75 25.574219 C 57.230469 25.574219 57.742188 25.671875 58.167969 26.039062 C 58.628906 26.433594 58.699219 26.703125 58.699219 28.234375 L 58.699219 29.648438 L 57.398438 29.648438 L 57.398438 28.382812 C 57.398438 26.734375 57.308594 26.507812 56.5625 26.226562 C 56.332031 26.148438 56.140625 26.125 55.46875 26.125 C 54.539062 26.125 54.078125 26.21875 53.539062 26.507812 C 52.910156 26.84375 52.898438 26.863281 52.898438 28.324219 L 52.898438 29.648438 L 51.597656 29.648438 L 51.597656 24.601562 L 50.300781 24.601562 L 50.300781 23.992188 L 51.582031 24.007812 L 52.851562 24.023438 Z M 66.269531 25.628906 C 67.640625 25.832031 68.320312 26.34375 68.460938 27.289062 L 68.527344 27.75 L 62.300781 27.75 L 62.300781 27.941406 C 62.300781 28.433594 62.980469 28.921875 63.871094 29.070312 C 64.882812 29.246094 66.691406 29.105469 67.519531 28.796875 C 67.667969 28.746094 67.828125 28.703125 67.882812 28.703125 C 67.921875 28.703125 68.058594 28.796875 68.179688 28.921875 L 68.402344 29.148438 L 67.992188 29.296875 C 66.738281 29.75 64.390625 29.890625 63.078125 29.582031 C 61.628906 29.253906 60.902344 28.585938 60.902344 27.613281 C 60.902344 26.585938 61.878906 25.855469 63.582031 25.628906 C 64.230469 25.53125 65.660156 25.53125 66.269531 25.628906 Z M 75.300781 25.605469 C 75.960938 25.671875 76.578125 25.914062 76.890625 26.226562 C 77.148438 26.46875 77.148438 26.492188 77.160156 27.625 C 77.160156 29.265625 77.097656 29.097656 77.75 29.097656 L 78.300781 29.097656 L 78.300781 29.648438 L 76.121094 29.648438 L 75.980469 29.03125 L 75.78125 29.164062 C 75.46875 29.378906 74.769531 29.597656 74.082031 29.675781 C 72.648438 29.867188 71.121094 29.53125 70.8125 28.96875 C 70.441406 28.300781 71.03125 27.691406 72.277344 27.4375 C 72.78125 27.339844 73.03125 27.328125 74.382812 27.328125 L 75.902344 27.328125 L 75.902344 26.984375 C 75.902344 26.335938 75.5 26.148438 74.097656 26.148438 C 73.492188 26.148438 73.089844 26.175781 72.53125 26.273438 C 72.109375 26.34375 71.730469 26.394531 71.679688 26.390625 C 71.632812 26.382812 71.5 26.28125 71.398438 26.164062 L 71.210938 25.949219 L 71.601562 25.847656 C 72.519531 25.613281 74.300781 25.503906 75.300781 25.605469 Z M 24.101562 32.394531 C 24.25 32.542969 24.226562 32.59375 23.960938 32.671875 C 23.648438 32.78125 23.296875 32.703125 23.296875 32.535156 C 23.296875 32.308594 23.890625 32.203125 24.101562 32.394531 Z M 35.300781 33.824219 L 35.300781 35.347656 L 34.953125 35.347656 C 34.609375 35.347656 34.601562 35.347656 34.601562 35.164062 L 34.601562 34.980469 L 34.328125 35.113281 C 33.519531 35.492188 32.023438 35.414062 31.28125 34.953125 C 30.429688 34.417969 30.832031 33.566406 32.050781 33.296875 C 32.800781 33.128906 33.890625 33.195312 34.390625 33.441406 L 34.601562 33.550781 L 34.601562 32.300781 L 35.300781 32.300781 Z M 39.582031 32.359375 C 39.769531 32.453125 39.71875 32.636719 39.488281 32.703125 C 39.332031 32.746094 39.226562 32.738281 39.042969 32.671875 C 38.769531 32.59375 38.75 32.542969 38.898438 32.394531 C 39.019531 32.292969 39.402344 32.269531 39.582031 32.359375 Z M 70.5 32.394531 C 70.648438 32.542969 70.632812 32.59375 70.359375 32.671875 C 70.046875 32.78125 69.699219 32.703125 69.699219 32.535156 C 69.699219 32.308594 70.289062 32.203125 70.5 32.394531 Z M 98.402344 32.371094 C 98.570312 32.476562 98.449219 32.679688 98.210938 32.71875 C 97.960938 32.746094 97.597656 32.621094 97.597656 32.503906 C 97.597656 32.316406 98.148438 32.226562 98.402344 32.371094 Z M 22.402344 32.601562 L 22.402344 32.746094 L 19.101562 32.746094 L 19.101562 33.851562 L 22.113281 33.851562 L 22.078125 33.984375 L 22.050781 34.125 L 20.582031 34.136719 L 19.101562 34.152344 L 19.101562 35.347656 L 18.398438 35.347656 L 18.398438 32.453125 L 22.402344 32.453125 Z M 49.300781 33.75 L 49.300781 35.046875 L 52.5 35.046875 L 52.5 35.347656 L 48.601562 35.347656 L 48.601562 32.453125 L 49.300781 32.453125 Z M 83.078125 32.527344 C 83.589844 32.636719 83.878906 32.78125 84 33.011719 C 84.140625 33.265625 83.980469 33.558594 83.597656 33.714844 L 83.296875 33.839844 L 83.648438 33.941406 C 84.117188 34.078125 84.320312 34.261719 84.332031 34.542969 C 84.339844 34.839844 84.078125 35.082031 83.597656 35.222656 C 83.289062 35.316406 83.050781 35.324219 81.378906 35.339844 L 79.5 35.363281 L 79.5 32.453125 L 81.101562 32.453125 C 82.320312 32.453125 82.789062 32.46875 83.078125 32.527344 Z M 41.898438 32.953125 L 41.898438 33.199219 L 42.601562 33.199219 C 43.277344 33.199219 43.300781 33.207031 43.300781 33.324219 C 43.300781 33.441406 43.277344 33.449219 42.601562 33.449219 L 41.898438 33.449219 L 41.898438 34.09375 C 41.898438 34.453125 41.9375 34.796875 42 34.878906 C 42.128906 35.046875 42.53125 35.121094 42.976562 35.046875 C 43.332031 34.988281 43.492188 35.03125 43.5 35.179688 C 43.5 35.324219 42.492188 35.40625 41.960938 35.304688 C 41.820312 35.273438 41.609375 35.179688 41.5 35.089844 C 41.320312 34.945312 41.300781 34.835938 41.300781 34.183594 L 41.300781 33.449219 L 40.898438 33.449219 C 40.539062 33.449219 40.5 33.433594 40.5 33.324219 C 40.5 33.207031 40.539062 33.199219 40.898438 33.199219 L 41.300781 33.199219 L 41.300781 32.953125 C 41.300781 32.703125 41.308594 32.703125 41.601562 32.703125 C 41.890625 32.703125 41.898438 32.703125 41.898438 32.953125 Z M 72.78125 32.960938 L 72.808594 33.199219 L 73.457031 33.199219 C 74.082031 33.199219 74.097656 33.207031 74.097656 33.324219 C 74.097656 33.441406 74.082031 33.449219 73.449219 33.449219 L 72.792969 33.449219 L 72.851562 34.972656 L 73.140625 35.046875 C 73.359375 35.097656 73.507812 35.097656 73.792969 35.0625 C 74.140625 35.003906 74.289062 35.039062 74.300781 35.179688 C 74.300781 35.339844 73.199219 35.40625 72.6875 35.273438 C 72.210938 35.140625 72.101562 34.945312 72.101562 34.152344 L 72.101562 33.449219 L 71.699219 33.449219 C 71.339844 33.449219 71.300781 33.433594 71.300781 33.324219 C 71.300781 33.207031 71.339844 33.199219 71.699219 33.199219 L 72.101562 33.199219 L 72.101562 32.695312 L 72.429688 32.710938 C 72.742188 32.726562 72.75 32.730469 72.78125 32.960938 Z M 100.699219 32.953125 L 100.699219 33.199219 L 101.347656 33.199219 C 101.980469 33.199219 102 33.207031 102 33.324219 C 102 33.441406 101.980469 33.449219 101.347656 33.449219 L 100.699219 33.449219 L 100.699219 34.167969 C 100.699219 34.761719 100.730469 34.90625 100.863281 34.972656 C 101.082031 35.082031 101.410156 35.113281 101.75 35.046875 C 102 35.003906 102.058594 35.011719 102.167969 35.082031 C 102.277344 35.15625 102.277344 35.183594 102.15625 35.238281 C 101.960938 35.339844 101.070312 35.375 100.699219 35.304688 C 100.160156 35.191406 100.058594 35.015625 100.019531 34.183594 L 99.980469 33.449219 L 99.640625 33.449219 C 99.339844 33.449219 99.300781 33.433594 99.300781 33.324219 C 99.300781 33.214844 99.339844 33.199219 99.648438 33.199219 C 100 33.199219 100 33.199219 100 32.988281 C 100 32.730469 100.042969 32.703125 100.417969 32.703125 C 100.691406 32.703125 100.699219 32.710938 100.699219 32.953125 Z M 24.101562 34.277344 L 24.101562 35.347656 L 23.402344 35.347656 L 23.402344 33.199219 L 24.101562 33.199219 Z M 26.300781 33.347656 L 26.300781 33.492188 L 26.660156 33.375 C 27.601562 33.054688 29 33.171875 29.480469 33.617188 C 29.613281 33.742188 29.648438 33.933594 29.679688 34.5625 L 29.722656 35.347656 L 29 35.347656 L 29 34.621094 C 29 33.648438 28.832031 33.5 27.71875 33.5 C 27.128906 33.5 26.820312 33.582031 26.527344 33.792969 C 26.320312 33.949219 26.300781 34.019531 26.300781 34.65625 L 26.300781 35.347656 L 25.601562 35.347656 L 25.601562 33.199219 L 25.949219 33.199219 C 26.269531 33.199219 26.300781 33.207031 26.300781 33.347656 Z M 39.597656 34.277344 L 39.597656 35.347656 L 39 35.347656 L 39 33.199219 L 39.597656 33.199219 Z M 55.980469 33.28125 C 57.398438 33.574219 57.75 34.535156 56.636719 35.0625 C 55.632812 35.539062 53.878906 35.414062 53.1875 34.828125 C 52.921875 34.601562 52.886719 34.542969 52.921875 34.21875 C 52.949219 33.933594 53 33.824219 53.230469 33.65625 C 53.75 33.257812 55.050781 33.082031 55.980469 33.28125 Z M 58.976562 34.085938 C 59.398438 34.5625 59.769531 34.9375 59.808594 34.914062 C 59.851562 34.894531 60.21875 34.503906 60.628906 34.050781 C 61.339844 33.253906 61.378906 33.222656 61.679688 33.207031 C 61.859375 33.199219 62 33.199219 62 33.214844 C 62 33.222656 61.578125 33.707031 61.058594 34.277344 L 60.128906 35.324219 L 59.78125 35.339844 L 59.441406 35.355469 L 58.480469 34.277344 L 57.507812 33.195312 L 57.863281 33.207031 L 58.210938 33.222656 Z M 65.28125 33.273438 C 66 33.429688 66.488281 33.785156 66.5 34.160156 L 66.5 34.351562 L 64.699219 34.351562 C 63.011719 34.351562 62.898438 34.359375 62.898438 34.445312 C 62.898438 34.59375 63.328125 34.871094 63.699219 34.957031 C 64.242188 35.097656 65.078125 35.082031 65.550781 34.921875 C 65.898438 34.804688 65.941406 34.796875 66.089844 34.878906 C 66.308594 34.980469 66.148438 35.097656 65.589844 35.238281 C 64.941406 35.414062 63.917969 35.382812 63.25 35.179688 C 61.820312 34.730469 61.96875 33.609375 63.5 33.28125 C 63.957031 33.179688 64.808594 33.179688 65.28125 33.273438 Z M 70.5 34.277344 L 70.5 35.347656 L 69.800781 35.347656 L 69.800781 33.199219 L 70.5 33.199219 Z M 86.199219 33.925781 C 86.199219 34.71875 86.269531 34.863281 86.710938 34.980469 C 87.152344 35.089844 87.910156 35.070312 88.3125 34.9375 C 88.78125 34.777344 88.890625 34.578125 88.890625 33.839844 L 88.902344 33.199219 L 89.5 33.199219 L 89.5 35.347656 L 89.203125 35.347656 C 88.929688 35.347656 88.902344 35.332031 88.902344 35.191406 C 88.902344 35.046875 88.890625 35.039062 88.730469 35.113281 C 88.121094 35.375 87.046875 35.433594 86.359375 35.238281 C 85.660156 35.039062 85.550781 34.894531 85.519531 33.984375 L 85.480469 33.199219 L 86.199219 33.199219 Z M 91.761719 34.074219 C 92.191406 34.546875 92.558594 34.9375 92.589844 34.921875 C 92.628906 34.914062 92.988281 34.527344 93.398438 34.058594 C 94.148438 33.207031 94.148438 33.199219 94.472656 33.199219 L 94.789062 33.199219 L 94.609375 33.414062 C 93.941406 34.191406 92.546875 35.699219 92.378906 35.835938 C 92.023438 36.136719 91.207031 36.234375 90.449219 36.078125 C 90.070312 36 90.039062 35.96875 90.242188 35.835938 C 90.359375 35.757812 90.398438 35.757812 90.730469 35.824219 C 91.25 35.933594 91.378906 35.917969 91.75 35.734375 C 92.371094 35.425781 92.429688 35.542969 90.613281 33.539062 L 90.3125 33.199219 L 90.980469 33.199219 Z M 98.402344 34.277344 L 98.402344 35.347656 L 97.703125 35.347656 L 97.703125 33.199219 L 98.402344 33.199219 Z M 45.039062 34.980469 C 45.242188 35.082031 45.242188 35.097656 44.972656 35.550781 C 44.78125 35.851562 44.6875 35.933594 44.519531 35.941406 C 44.269531 35.960938 44.261719 35.925781 44.410156 35.625 C 44.5 35.441406 44.492188 35.390625 44.351562 35.28125 C 44.191406 35.164062 44.191406 35.140625 44.339844 35.023438 C 44.53125 34.878906 44.808594 34.863281 45.039062 34.980469 Z M 75.839844 34.980469 C 76.050781 35.082031 76.039062 35.128906 75.78125 35.574219 C 75.589844 35.902344 75.53125 35.949219 75.328125 35.949219 C 75.058594 35.949219 75.058594 35.949219 75.242188 35.617188 C 75.359375 35.398438 75.359375 35.355469 75.242188 35.332031 C 75.070312 35.296875 75.058594 35.039062 75.21875 34.957031 C 75.386719 34.878906 75.660156 34.886719 75.839844 34.980469 Z M 71.300781 40.101562 L 71.300781 40.503906 L 48.300781 40.503906 L 48.300781 39.699219 L 71.300781 39.699219 Z M 71.300781 40.101562 "/>
<path style=" stroke:none;fill-rule:nonzero;fill:rgb(0%,0%,0%);fill-opacity:1;" d="M 63.878906 26.164062 C 63.191406 26.25 62.546875 26.609375 62.359375 27.011719 L 62.300781 27.152344 L 67.199219 27.152344 L 67.199219 27.035156 C 67.1875 26.886719 66.882812 26.558594 66.597656 26.402344 C 66.070312 26.132812 64.898438 26.023438 63.878906 26.164062 Z M 63.878906 26.164062 "/>
<path style=" stroke:none;fill-rule:nonzero;fill:rgb(0%,0%,0%);fill-opacity:1;" d="M 73.410156 27.847656 C 72.890625 27.90625 72.347656 28.082031 72.210938 28.242188 C 71.9375 28.527344 72.191406 28.9375 72.71875 29.078125 C 73.03125 29.171875 74.121094 29.164062 74.539062 29.078125 C 74.960938 28.996094 75.570312 28.726562 75.761719 28.542969 C 75.90625 28.394531 75.949219 27.925781 75.808594 27.882812 C 75.640625 27.824219 73.839844 27.800781 73.410156 27.847656 Z M 73.410156 27.847656 "/>
<path style=" stroke:none;fill-rule:nonzero;fill:rgb(0%,0%,0%);fill-opacity:1;" d="M 32.652344 33.492188 C 31.839844 33.597656 31.449219 33.890625 31.519531 34.359375 C 31.558594 34.621094 31.613281 34.671875 31.929688 34.839844 C 32.257812 35.003906 32.351562 35.015625 32.917969 35.039062 C 33.421875 35.046875 33.621094 35.03125 33.878906 34.957031 C 34.351562 34.804688 34.601562 34.570312 34.601562 34.269531 C 34.601562 33.742188 33.667969 33.375 32.652344 33.492188 Z M 32.652344 33.492188 "/>
<path style=" stroke:none;fill-rule:nonzero;fill:rgb(0%,0%,0%);fill-opacity:1;" d="M 80.199219 33.222656 L 80.199219 33.75 L 81.179688 33.75 C 81.710938 33.75 82.332031 33.726562 82.550781 33.699219 C 83.308594 33.617188 83.648438 33.222656 83.199219 32.9375 C 82.9375 32.769531 82.332031 32.703125 81.160156 32.703125 L 80.199219 32.703125 Z M 80.199219 33.222656 "/>
<path style=" stroke:none;fill-rule:nonzero;fill:rgb(0%,0%,0%);fill-opacity:1;" d="M 80.199219 34.546875 L 80.199219 35.113281 L 81.53125 35.089844 C 83.058594 35.070312 83.46875 34.996094 83.640625 34.710938 C 83.78125 34.46875 83.609375 34.246094 83.199219 34.132812 C 82.910156 34.042969 82.628906 34.027344 81.53125 34.007812 L 80.199219 33.992188 Z M 80.199219 34.546875 "/>
<path style=" stroke:none;fill-rule:nonzero;fill:rgb(0%,0%,0%);fill-opacity:1;" d="M 54.570312 33.523438 C 53.789062 33.664062 53.417969 33.96875 53.539062 34.386719 C 53.660156 34.8125 54.210938 35.046875 55.109375 35.046875 C 56.058594 35.046875 56.636719 34.761719 56.636719 34.277344 C 56.648438 33.707031 55.609375 33.332031 54.570312 33.523438 Z M 54.570312 33.523438 "/>
<path style=" stroke:none;fill-rule:nonzero;fill:rgb(0%,0%,0%);fill-opacity:1;" d="M 63.871094 33.523438 C 63.667969 33.558594 63.429688 33.617188 63.339844 33.65625 C 63.171875 33.726562 62.898438 33.960938 62.898438 34.050781 C 62.898438 34.078125 63.421875 34.101562 64.398438 34.101562 C 66.039062 34.101562 66.050781 34.101562 65.699219 33.816406 C 65.359375 33.53125 64.539062 33.398438 63.871094 33.523438 Z M 63.871094 33.523438 "/>
</g>
</svg>
